<?xml version="1.0" encoding="UTF-8" ?>
<!DOCTYPE svg PUBLIC "-//W3C//DTD SVG 1.1//EN" "http://www.w3.org/Graphics/SVG/1.1/DTD/svg11.dtd">
<svg width="1024pt" height="1024pt" viewBox="0 0 1024 1024" version="1.1" xmlns="http://www.w3.org/2000/svg">
<g id="#fcfdfcff">
<path fill="#fcfdfc" opacity="1.00" d=" M 477.31 270.33 C 481.17 267.73 482.76 263.11 485.72 259.70 C 485.54 263.35 485.79 267.12 487.97 270.22 C 482.09 272.52 478.10 277.59 472.85 280.89 C 466.71 286.05 459.66 290.20 454.64 296.58 C 452.04 299.18 450.18 302.38 449.31 305.97 C 446.27 305.84 443.25 305.44 440.28 304.77 C 440.85 299.81 446.08 298.26 448.22 294.22 C 455.58 283.77 466.93 277.34 477.31 270.33 Z" />
<path fill="#fcfdfc" opacity="1.00" d=" M 499.20 270.47 C 511.53 266.44 524.64 271.46 534.78 278.61 C 533.66 284.67 530.09 289.81 527.16 295.09 C 524.62 299.41 522.62 304.34 518.34 307.28 C 514.82 303.19 513.25 297.96 510.82 293.24 C 507.24 285.49 502.19 278.49 499.20 270.47 Z" />
<path fill="#fcfdfc" opacity="1.00" d=" M 483.70 277.72 C 486.58 276.10 489.08 273.93 491.20 271.41 C 495.52 275.79 498.45 281.30 501.43 286.62 C 505.16 294.49 509.92 301.90 512.88 310.12 C 509.57 312.02 505.74 312.70 501.97 312.15 C 493.16 310.99 484.42 309.26 475.54 308.65 C 468.26 307.97 460.93 308.31 453.65 307.72 C 455.33 303.95 457.36 300.24 460.31 297.31 C 467.77 290.41 474.87 282.92 483.70 277.72 Z" />
<path fill="#fcfdfc" opacity="1.00" d=" M 537.53 282.12 C 547.04 289.55 552.65 300.91 555.52 312.41 C 556.64 316.48 557.02 320.70 557.01 324.91 C 545.22 322.08 533.76 317.95 521.81 315.81 C 521.77 313.80 521.45 311.52 522.93 309.91 C 526.72 305.42 528.89 299.91 531.97 294.97 C 534.43 290.98 536.60 286.75 537.53 282.12 Z" />
<path fill="#fcfdfc" opacity="1.00" d=" M 655.01 290.54 C 662.22 287.86 669.14 283.80 676.98 283.31 C 680.85 283.18 684.77 283.04 688.62 283.59 C 695.40 285.24 701.85 290.30 703.26 297.43 C 704.86 307.45 703.36 318.18 698.35 327.07 C 705.81 334.88 711.83 344.94 712.12 356.00 C 712.11 361.61 711.24 367.90 706.68 371.74 C 702.41 376.32 695.86 377.12 689.97 377.67 C 679.58 378.03 670.86 371.49 662.01 367.01 C 657.11 371.52 652.01 375.84 646.61 379.74 C 643.51 382.11 638.91 382.75 635.58 380.46 C 631.90 378.34 630.09 374.28 628.51 370.54 C 625.84 362.78 626.17 354.44 626.56 346.36 C 626.52 344.96 626.96 343.29 625.75 342.25 C 622.60 338.73 618.58 335.99 616.02 331.96 C 612.54 326.07 612.64 317.75 617.89 312.89 C 622.98 308.37 629.96 307.07 636.35 305.37 C 637.96 301.66 639.71 298.02 641.29 294.31 C 642.45 291.18 643.42 287.94 645.29 285.14 C 648.73 286.56 651.74 288.78 655.01 290.54 M 658.13 295.51 C 659.52 298.35 661.10 301.48 664.10 302.89 C 668.38 304.44 673.31 304.13 677.18 306.84 C 682.58 310.72 688.68 314.13 691.95 320.20 C 694.68 314.18 697.19 307.71 696.53 300.97 C 696.68 296.02 692.03 292.47 687.66 291.35 C 677.67 289.20 667.38 291.62 658.13 295.51 M 646.92 302.68 C 649.03 302.52 651.14 302.28 653.23 301.94 C 652.17 300.88 651.11 299.85 650.04 298.82 C 648.99 300.10 647.94 301.38 646.92 302.68 M 644.15 311.16 C 641.36 312.00 640.60 315.23 639.66 317.63 C 637.93 323.26 636.00 329.01 636.14 334.98 C 642.14 332.02 647.70 328.12 654.10 326.02 C 657.67 325.10 661.41 325.41 665.05 324.91 C 663.83 319.35 660.08 314.89 656.52 310.64 C 652.40 310.61 648.17 310.09 644.15 311.16 M 667.06 313.11 C 669.92 319.28 673.38 325.22 675.21 331.81 C 676.19 335.48 675.68 339.30 675.50 343.03 C 681.48 338.99 682.69 331.30 685.73 325.22 C 680.41 320.17 674.94 313.47 667.06 313.11 M 622.51 320.47 C 621.16 326.52 626.45 330.76 628.69 335.79 C 629.14 332.21 629.33 328.61 629.50 325.01 C 629.68 321.16 632.11 317.95 632.89 314.24 C 628.60 314.28 624.77 316.95 622.51 320.47 M 640.37 342.60 C 645.52 346.99 651.71 349.87 657.16 353.86 C 658.56 354.61 660.52 356.55 662.05 355.07 C 667.97 349.17 667.38 340.02 667.04 332.32 C 657.40 333.49 648.64 337.78 640.37 342.60 M 684.00 344.01 C 680.25 347.62 677.42 352.13 673.05 355.07 C 671.60 356.58 668.60 358.06 669.45 360.52 C 672.50 363.01 676.17 364.57 679.62 366.43 C 684.08 368.92 689.42 369.09 694.35 368.27 C 698.99 367.30 702.46 362.74 702.21 358.02 C 701.93 349.20 698.07 340.86 692.80 333.93 C 689.41 336.89 687.18 340.87 684.00 344.01 M 634.48 346.90 C 633.10 353.91 633.53 361.52 637.01 367.88 C 638.46 369.84 640.37 372.17 642.98 372.31 C 648.83 370.50 652.92 365.55 656.96 361.23 C 652.58 358.93 647.88 357.15 643.95 354.09 C 640.71 351.79 638.18 348.52 634.48 346.90 Z" />
<path fill="#fcfdfc" opacity="1.00" d=" M 441.37 312.39 C 442.76 312.41 444.15 312.42 445.56 312.42 C 444.82 313.93 444.12 315.45 443.39 316.96 C 442.78 315.40 442.16 313.86 441.37 312.39 Z" />
<path fill="#fcfdfc" opacity="1.00" d=" M 451.32 313.28 C 453.75 312.37 456.41 312.60 458.96 312.68 C 465.43 313.09 471.96 312.50 478.38 313.55 C 484.98 314.56 491.59 315.48 498.17 316.59 C 488.24 316.60 478.74 320.23 470.25 325.15 C 462.97 328.52 455.63 331.89 448.12 334.70 C 448.23 327.61 445.86 319.00 451.32 313.28 Z" />
<path fill="#fcfdfc" opacity="1.00" d=" M 489.90 322.02 C 498.09 319.63 506.41 316.21 515.11 317.20 C 508.19 331.83 498.87 345.16 489.15 358.04 C 488.30 358.94 487.53 360.70 486.00 360.16 C 479.15 358.71 472.34 356.51 466.50 352.56 C 460.31 348.78 452.48 346.09 448.96 339.30 C 462.14 332.51 476.10 327.40 489.90 322.02 Z" />
<path fill="#fcfdfc" opacity="1.00" d=" M 520.90 320.30 C 525.58 321.45 530.31 322.42 534.94 323.83 C 542.33 326.04 550.10 327.09 557.13 330.42 C 554.63 336.94 552.44 344.26 546.51 348.52 C 542.49 353.19 537.85 357.25 533.14 361.21 C 530.67 357.46 528.87 353.26 528.21 348.80 C 526.86 339.04 523.09 329.86 520.90 320.30 Z" />
<path fill="#fcfdfc" opacity="1.00" d=" M 507.41 338.38 C 510.53 333.30 512.92 327.78 516.44 322.96 C 519.08 331.13 521.35 339.41 522.99 347.84 C 524.06 353.74 527.02 359.01 528.90 364.64 C 522.71 367.76 516.17 370.06 509.71 372.52 C 504.43 374.45 498.70 374.54 493.38 376.26 C 491.90 377.63 491.44 380.34 489.00 380.31 C 488.27 380.29 486.81 380.25 486.08 380.22 C 488.59 378.53 489.83 375.97 489.19 372.95 C 489.17 370.33 489.93 367.79 490.37 365.23 C 500.74 365.49 511.39 363.65 520.52 358.55 C 522.86 357.24 522.03 354.37 522.13 352.19 C 513.82 357.33 504.06 361.52 494.09 360.29 C 498.26 352.83 503.48 345.99 507.41 338.38 Z" />
<path fill="#fcfdfc" opacity="1.00" d=" M 789.68 361.05 C 799.84 356.22 804.48 345.02 813.07 338.28 C 815.48 343.42 816.65 349.02 818.88 354.24 C 821.16 359.41 821.66 365.30 824.90 370.05 C 827.38 373.27 823.07 376.08 822.08 379.02 C 818.73 386.78 815.15 394.92 815.35 403.54 C 820.26 407.30 824.65 411.78 827.87 417.09 C 834.52 429.75 837.67 444.65 834.42 458.76 C 832.50 465.96 829.62 473.06 824.94 478.93 C 820.59 484.37 814.53 488.05 808.63 491.57 C 799.42 496.88 788.32 497.27 778.04 495.81 C 764.72 492.66 752.36 484.60 745.13 472.83 C 734.15 456.05 737.02 432.65 749.29 417.31 C 754.46 410.07 761.55 404.30 769.60 400.56 C 773.53 398.61 777.99 399.28 782.20 399.45 C 784.52 390.22 786.38 380.89 788.72 371.67 C 789.57 368.19 789.47 364.59 789.68 361.05 M 798.76 365.60 C 796.49 372.35 794.01 379.08 792.54 386.06 C 790.09 402.23 783.75 417.51 781.67 433.75 C 778.15 433.82 774.64 433.78 771.14 433.65 C 775.40 425.62 778.38 416.89 779.94 407.94 C 772.86 408.76 767.15 413.54 761.96 418.03 C 756.68 422.44 753.51 428.73 750.95 434.99 C 748.15 441.70 747.73 449.23 748.71 456.37 C 749.04 458.63 751.46 459.17 753.33 459.62 C 759.12 460.77 764.95 461.77 770.66 463.31 C 773.59 464.11 776.75 464.77 779.10 466.84 C 779.83 468.35 779.50 470.12 779.72 471.75 C 770.08 471.55 761.28 466.89 752.19 464.16 C 758.25 473.90 767.33 482.34 778.70 485.16 C 792.56 487.80 807.68 482.58 816.85 471.83 C 821.96 466.10 824.07 458.45 825.22 451.04 C 826.40 436.97 819.92 423.15 810.43 413.08 C 808.55 421.90 806.27 430.64 805.10 439.60 C 803.10 439.16 801.09 438.74 799.09 438.38 C 802.19 428.26 804.41 417.92 806.95 407.66 C 809.17 400.78 810.55 393.67 812.79 386.79 C 814.06 382.27 815.94 377.77 815.82 372.99 C 815.54 370.24 814.09 366.69 810.77 367.16 C 806.02 381.57 803.10 396.49 799.10 411.12 C 796.85 419.23 795.09 427.46 793.51 435.72 C 792.03 436.95 789.87 435.58 788.14 435.67 C 788.48 430.39 790.27 425.38 791.42 420.25 C 794.31 409.86 795.71 399.13 798.85 388.80 C 800.50 381.02 803.00 373.24 802.73 365.21 C 801.40 365.33 800.08 365.46 798.76 365.60 Z" />
<path fill="#fcfdfc" opacity="1.00" d=" M 442.56 341.74 C 445.79 342.73 448.19 345.17 450.86 347.10 C 459.47 352.75 467.96 358.91 477.81 362.25 C 480.68 363.45 483.74 362.33 486.66 361.94 C 485.84 364.40 484.77 366.76 483.98 369.23 C 481.88 369.94 479.56 371.06 477.47 369.71 C 471.21 366.52 465.74 362.02 460.03 357.98 C 454.85 354.34 450.92 349.25 445.69 345.70 C 445.62 346.90 445.56 348.12 445.54 349.33 C 443.82 347.13 442.83 344.50 442.56 341.74 Z" />
<path fill="#fcfdfc" opacity="1.00" d=" M 517.46 374.93 C 521.82 371.92 527.33 370.47 530.38 365.80 C 533.88 370.06 537.94 373.78 542.35 377.09 C 541.26 378.20 540.19 379.31 539.10 380.42 C 533.14 379.19 527.16 378.07 521.20 376.82 C 519.77 376.59 518.59 375.75 517.46 374.93 Z" />
<path fill="#fcfdfc" opacity="1.00" d=" M 354.49 389.63 C 357.24 388.88 360.76 388.81 362.77 391.19 C 369.29 398.42 373.11 407.51 378.44 415.57 C 382.51 422.11 387.61 428.01 390.88 435.05 C 392.29 438.42 394.75 441.56 394.69 445.37 C 371.96 456.08 351.36 470.61 329.00 482.01 C 324.69 484.25 319.99 488.14 314.85 486.29 C 310.94 484.12 308.97 479.81 306.93 476.05 C 304.17 470.19 301.13 464.48 298.34 458.65 C 295.15 451.36 290.52 444.76 287.77 437.26 C 287.33 435.63 286.81 433.52 288.26 432.24 C 292.20 427.81 297.85 425.57 303.21 423.37 C 310.38 420.55 316.63 415.95 323.25 412.07 C 330.71 406.87 339.39 403.41 345.93 396.93 C 348.65 394.37 351.00 391.21 354.49 389.63 M 344.42 416.49 C 339.36 418.09 338.01 424.67 341.64 428.39 C 345.05 429.05 349.29 428.78 351.24 425.43 C 352.10 422.67 351.80 419.61 351.15 416.83 C 349.04 415.91 346.62 416.12 344.42 416.49 M 320.37 437.60 C 322.88 439.65 326.64 438.58 329.26 437.26 C 331.86 435.90 331.62 432.80 331.71 430.32 C 329.94 429.63 328.16 427.85 326.21 429.05 C 322.61 429.97 317.81 433.42 320.37 437.60 M 361.37 431.53 C 355.64 432.99 355.09 441.46 358.56 445.37 C 361.34 448.73 366.54 446.71 368.70 443.67 C 371.16 440.64 370.59 436.43 370.08 432.85 C 367.69 430.76 364.28 431.14 361.37 431.53 M 304.26 438.17 C 304.31 441.07 303.72 444.65 306.43 446.63 C 310.77 448.26 313.77 441.11 310.29 438.66 C 308.65 436.95 306.26 437.89 304.26 438.17 M 338.45 439.58 C 332.96 441.54 333.47 451.56 339.59 452.48 C 342.18 452.64 346.15 453.68 347.33 450.52 C 347.73 448.49 347.65 446.38 347.33 444.36 C 346.21 440.65 342.22 438.36 338.45 439.58 M 322.41 460.33 C 319.54 462.26 316.81 465.32 317.20 469.03 C 317.01 471.70 319.13 474.88 322.00 474.72 C 325.54 475.08 326.63 470.71 327.22 468.03 C 327.76 464.94 326.50 459.58 322.41 460.33 Z" />
<path fill="#fcfdfc" opacity="1.00" d=" M 614.34 451.11 C 617.10 449.51 619.27 452.32 620.78 454.29 C 622.69 456.94 624.71 460.40 622.98 463.68 C 619.77 470.39 615.67 476.65 612.19 483.22 C 607.15 488.44 605.04 495.75 599.62 500.66 C 594.36 506.18 585.10 507.68 578.56 503.58 C 570.81 499.33 565.91 489.54 568.93 480.93 C 571.67 476.50 575.58 472.84 579.56 469.54 C 591.14 463.39 602.19 456.09 614.34 451.11 M 598.97 466.00 C 596.94 466.67 594.93 467.39 592.96 468.21 C 594.51 469.64 596.17 470.94 597.89 472.18 C 600.71 474.17 602.41 477.27 604.39 480.03 C 607.11 479.01 608.64 476.43 610.28 474.21 C 612.84 470.43 615.69 466.75 617.37 462.47 C 618.14 460.63 617.16 458.83 616.02 457.43 C 610.08 459.77 605.04 463.93 598.97 466.00 M 585.44 473.55 C 581.06 474.31 577.27 477.42 575.36 481.38 C 572.64 487.10 574.66 495.86 581.31 497.76 C 588.68 500.00 598.51 496.68 601.04 488.89 C 602.05 484.34 600.40 479.15 596.68 476.25 C 593.57 473.75 589.31 473.05 585.44 473.55 Z" />
</g>
<g id="#01c3c5ff">
<path fill="#01c3c5" opacity="1.00" d=" M 477.08 191.08 C 496.11 187.19 515.68 185.62 535.06 187.35 C 545.91 187.63 556.63 189.46 567.23 191.66 C 585.76 195.05 603.45 202.09 619.86 211.25 C 627.45 215.71 634.63 220.87 641.20 226.73 C 647.50 232.52 652.37 239.61 657.96 246.03 C 658.88 246.80 659.58 248.19 660.93 248.22 C 665.03 246.87 668.72 244.52 672.81 243.16 C 689.83 238.87 708.13 240.01 724.42 246.59 C 735.21 250.54 745.29 256.46 753.78 264.22 C 759.04 269.41 763.55 275.28 767.86 281.26 C 795.12 281.55 822.34 288.69 846.25 301.80 C 852.48 305.49 859.10 308.61 864.69 313.30 C 891.75 333.81 912.05 363.68 919.43 396.96 C 920.79 405.79 922.47 414.62 922.54 423.58 C 922.89 434.07 923.08 444.64 921.18 455.01 C 918.38 470.65 914.67 486.33 907.78 500.74 C 901.09 515.28 892.35 528.81 882.30 541.25 C 878.35 546.01 874.91 551.23 870.37 555.48 C 877.29 559.39 882.86 565.11 889.32 569.68 C 899.08 577.51 908.41 585.88 917.28 594.72 C 924.39 601.69 930.31 609.72 936.51 617.48 C 951.15 635.78 962.64 656.63 970.01 678.89 C 973.14 689.17 975.83 699.66 976.41 710.44 C 976.65 717.31 978.01 724.18 976.93 731.06 C 975.80 744.21 973.21 757.45 967.44 769.41 C 963.21 779.00 958.14 788.32 951.36 796.36 C 946.18 802.17 941.01 808.04 934.79 812.79 C 910.54 831.52 881.14 842.55 851.27 848.41 C 839.26 850.86 827.01 852.02 814.78 852.62 C 806.63 853.64 798.37 853.61 790.23 852.55 C 771.05 851.43 751.79 853.29 732.63 851.76 C 747.08 851.09 761.55 851.43 776.01 851.43 C 788.84 850.69 801.86 849.53 813.96 844.87 C 820.45 841.90 826.65 837.72 830.67 831.70 C 837.68 821.26 840.93 808.52 840.52 796.00 C 840.82 778.02 834.62 760.57 825.87 745.08 C 820.43 736.01 815.15 726.81 808.71 718.38 C 793.18 697.49 774.31 679.41 755.59 661.43 C 745.90 652.42 735.93 643.72 726.02 634.96 C 710.88 623.12 696.71 610.03 680.86 599.11 C 668.24 590.32 655.12 582.06 640.84 576.23 C 633.52 573.55 626.51 569.95 618.88 568.20 C 607.22 565.42 595.71 561.77 583.75 560.49 C 579.07 560.25 574.10 559.72 569.70 561.71 C 562.16 564.96 556.04 570.60 550.09 576.10 C 546.73 579.44 543.10 582.71 540.89 586.97 C 539.29 590.19 542.57 593.06 543.75 595.88 C 538.31 600.26 534.81 606.35 532.30 612.77 C 530.93 607.01 530.05 599.77 523.99 596.97 C 515.33 592.84 505.38 596.23 496.34 593.77 C 489.73 592.19 484.12 588.15 478.67 584.29 C 472.89 580.11 468.52 574.40 464.15 568.84 C 462.03 566.24 459.65 563.38 456.16 562.79 C 451.99 562.15 447.75 562.49 443.57 562.04 C 442.45 549.87 437.38 537.92 429.25 528.76 C 416.53 515.11 397.41 508.61 378.99 509.23 C 368.86 508.76 359.04 511.68 349.49 514.67 C 333.24 520.14 319.09 531.79 311.28 547.14 C 309.59 550.52 308.11 554.00 306.53 557.43 C 290.90 557.53 275.55 564.52 264.90 575.90 C 255.93 585.43 250.28 598.05 249.32 611.12 C 249.07 613.66 248.70 616.19 248.44 618.74 C 242.97 612.80 236.30 608.12 230.86 602.15 C 227.87 599.24 225.05 595.22 220.46 595.13 C 217.91 601.77 217.84 608.96 217.21 615.95 C 215.97 627.21 216.83 638.58 218.27 649.77 C 219.14 656.76 221.98 663.29 223.37 670.14 C 219.59 686.14 220.54 702.74 221.97 718.99 C 225.87 751.57 243.54 781.52 267.68 803.32 C 284.75 819.76 305.72 831.84 328.20 839.21 C 327.48 843.33 327.37 847.52 327.14 851.70 C 317.77 852.42 308.38 852.77 299.00 853.28 C 290.34 853.14 281.71 852.29 273.03 852.36 C 254.44 851.64 235.85 849.88 217.54 846.55 C 197.82 841.38 177.95 835.44 160.55 824.51 C 143.61 815.66 128.89 803.01 116.54 788.50 C 111.79 783.32 108.12 777.27 105.01 771.00 C 102.21 765.37 98.99 759.92 97.02 753.93 C 94.22 746.34 93.28 738.27 91.47 730.43 C 88.80 718.23 89.24 705.66 89.64 693.27 C 90.99 680.77 93.04 668.32 96.16 656.13 C 100.64 640.80 106.12 625.73 113.42 611.50 C 120.62 596.67 130.08 583.11 139.89 569.92 C 144.31 563.77 149.23 557.99 154.40 552.47 C 160.66 544.74 168.54 538.62 175.79 531.88 C 185.79 522.86 197.15 515.57 208.61 508.56 C 213.74 505.66 219.25 503.54 224.62 501.12 C 222.39 485.51 219.87 469.83 220.17 454.00 C 220.28 445.75 220.06 437.44 221.46 429.28 C 222.71 418.33 224.23 407.38 226.86 396.67 C 231.90 377.61 239.84 359.24 250.89 342.89 C 256.59 335.59 261.20 327.38 268.03 321.02 C 278.05 311.96 287.67 302.26 299.36 295.32 C 313.14 285.12 328.70 277.47 344.89 271.90 C 354.61 268.09 364.97 266.26 375.10 264.04 C 379.89 255.33 384.96 246.75 390.78 238.69 C 401.23 226.28 414.64 216.82 428.50 208.59 C 433.97 205.46 439.87 203.18 445.60 200.58 C 455.62 196.02 466.43 193.66 477.08 191.08 M 485.33 227.88 C 485.38 229.77 485.45 231.67 485.49 233.57 C 487.46 234.24 490.05 235.33 491.45 233.05 C 491.60 231.04 492.39 228.43 490.13 227.29 C 488.49 227.10 486.90 227.54 485.33 227.88 M 602.20 234.97 C 602.65 235.50 603.11 236.03 603.58 236.55 C 600.01 236.14 596.51 236.96 593.01 237.47 C 589.73 237.36 586.56 236.22 583.25 236.45 C 583.10 240.69 584.96 244.52 586.25 248.44 C 586.82 254.10 587.29 260.21 584.08 265.23 C 587.03 267.45 590.58 268.53 593.88 270.10 C 597.09 271.53 598.41 275.04 600.09 277.89 C 600.77 275.26 601.05 272.16 603.31 270.33 C 609.32 265.17 617.58 264.57 624.47 261.13 C 624.51 260.33 624.58 258.71 624.61 257.91 C 621.33 255.36 618.15 252.68 614.76 250.27 C 614.65 246.13 614.04 241.90 615.10 237.83 C 615.36 235.94 616.69 233.33 614.24 232.34 C 610.17 232.95 606.24 234.22 602.20 234.97 M 485.72 259.70 C 482.76 263.11 481.17 267.73 477.31 270.33 C 466.93 277.34 455.58 283.77 448.22 294.22 C 446.08 298.26 440.85 299.81 440.28 304.77 C 439.90 304.69 439.13 304.52 438.75 304.44 C 439.80 299.90 440.69 294.45 437.41 290.58 C 432.77 283.31 424.23 279.54 415.92 278.49 C 407.63 277.41 399.47 282.02 394.57 288.51 C 387.46 298.85 389.41 313.92 398.62 322.36 C 403.87 326.97 411.17 329.80 418.16 328.22 C 426.21 326.07 433.97 320.70 436.33 312.34 C 438.01 312.35 439.68 312.36 441.37 312.39 C 442.16 313.86 442.78 315.40 443.39 316.96 C 442.49 318.79 441.34 320.49 440.54 322.36 C 440.10 326.33 440.77 330.32 440.79 334.31 C 438.20 334.80 435.66 335.45 433.17 336.27 C 433.31 337.87 432.93 339.67 433.99 341.06 C 440.01 350.02 440.29 361.23 444.41 371.00 C 441.82 373.16 438.40 375.11 437.85 378.77 C 436.58 384.76 437.24 391.32 440.37 396.66 C 445.97 406.36 460.84 410.74 469.55 402.60 C 475.11 398.68 476.21 391.53 476.49 385.22 C 479.74 386.49 482.94 389.11 486.58 388.53 C 493.35 384.66 499.22 378.53 507.25 377.30 C 510.62 376.44 514.38 376.71 517.46 374.93 C 518.59 375.75 519.77 376.59 521.20 376.82 C 527.16 378.07 533.14 379.19 539.10 380.42 C 540.05 382.30 541.12 384.11 542.19 385.93 C 540.25 387.31 537.78 388.37 536.80 390.70 C 534.71 395.87 533.12 401.39 533.41 407.03 C 533.52 420.08 544.48 432.94 557.99 432.75 C 574.45 433.42 586.71 414.40 581.75 399.35 C 580.14 395.81 578.22 392.31 575.46 389.53 C 568.56 383.95 559.66 382.18 551.27 380.08 C 552.63 374.71 555.64 369.97 557.82 364.92 C 560.55 359.58 561.81 353.64 562.49 347.73 C 562.90 343.67 561.35 339.76 561.47 335.71 C 564.16 335.68 566.87 335.65 569.57 335.52 C 569.60 333.48 569.63 331.44 569.66 329.41 C 567.60 328.65 565.51 328.00 563.41 327.41 C 563.58 323.73 563.91 320.04 563.54 316.37 C 561.10 303.84 555.94 291.86 548.39 281.55 C 545.48 277.87 542.20 274.44 538.43 271.66 C 533.82 268.56 528.57 266.58 523.34 264.85 C 517.24 262.74 510.71 263.40 504.40 263.59 C 501.22 263.62 498.51 265.42 496.24 267.47 C 494.67 263.10 491.06 257.97 485.72 259.70 M 655.01 290.54 C 651.74 288.78 648.73 286.56 645.29 285.14 C 643.42 287.94 642.45 291.18 641.29 294.31 C 639.71 298.02 637.96 301.66 636.35 305.37 C 629.96 307.07 622.98 308.37 617.89 312.89 C 612.64 317.75 612.54 326.07 616.02 331.96 C 618.58 335.99 622.60 338.73 625.75 342.25 C 626.96 343.29 626.52 344.96 626.56 346.36 C 626.17 354.44 625.84 362.78 628.51 370.54 C 630.09 374.28 631.90 378.34 635.58 380.46 C 638.91 382.75 643.51 382.11 646.61 379.74 C 652.01 375.84 657.11 371.52 662.01 367.01 C 670.86 371.49 679.58 378.03 689.97 377.67 C 695.86 377.12 702.41 376.32 706.68 371.74 C 711.24 367.90 712.11 361.61 712.12 356.00 C 711.83 344.94 705.81 334.88 698.35 327.07 C 703.36 318.18 704.86 307.45 703.26 297.43 C 701.85 290.30 695.40 285.24 688.62 283.59 C 684.77 283.04 680.85 283.18 676.98 283.31 C 669.14 283.80 662.22 287.86 655.01 290.54 M 590.77 299.56 C 591.67 299.54 593.47 299.51 594.38 299.50 C 594.57 298.99 594.96 297.99 595.16 297.49 C 597.23 297.70 596.82 292.93 594.77 293.60 C 594.18 292.65 593.55 291.73 592.89 290.84 C 589.91 292.77 588.25 296.47 590.77 299.56 M 755.44 339.41 C 753.88 340.81 754.45 343.14 754.64 344.96 C 756.83 348.31 763.85 346.61 762.60 342.01 C 763.05 338.26 757.55 337.28 755.44 339.41 M 789.68 361.05 C 789.47 364.59 789.57 368.19 788.72 371.67 C 786.38 380.89 784.52 390.22 782.20 399.45 C 777.99 399.28 773.53 398.61 769.60 400.56 C 761.55 404.30 754.46 410.07 749.29 417.31 C 737.02 432.65 734.15 456.05 745.13 472.83 C 752.36 484.60 764.72 492.66 778.04 495.81 C 788.32 497.27 799.42 496.88 808.63 491.57 C 814.53 488.05 820.59 484.37 824.94 478.93 C 829.62 473.06 832.50 465.96 834.42 458.76 C 837.67 444.65 834.52 429.75 827.87 417.09 C 824.65 411.78 820.26 407.30 815.35 403.54 C 815.15 394.92 818.73 386.78 822.08 379.02 C 823.07 376.08 827.38 373.27 824.90 370.05 C 821.66 365.30 821.16 359.41 818.88 354.24 C 816.65 349.02 815.48 343.42 813.07 338.28 C 804.48 345.02 799.84 356.22 789.68 361.05 M 391.23 367.38 C 389.74 370.20 392.32 373.03 393.52 375.49 C 395.57 375.51 397.63 375.55 399.70 375.63 C 400.99 373.91 402.85 372.28 402.65 369.92 C 403.38 363.96 393.06 361.75 391.23 367.38 M 354.49 389.63 C 351.00 391.21 348.65 394.37 345.93 396.93 C 339.39 403.41 330.71 406.87 323.25 412.07 C 316.63 415.95 310.38 420.55 303.21 423.37 C 297.85 425.57 292.20 427.81 288.26 432.24 C 286.81 433.52 287.33 435.63 287.77 437.26 C 290.52 444.76 295.15 451.36 298.34 458.65 C 301.13 464.48 304.17 470.19 306.93 476.05 C 308.97 479.81 310.94 484.12 314.85 486.29 C 319.99 488.14 324.69 484.25 329.00 482.01 C 351.36 470.61 371.96 456.08 394.69 445.37 C 394.75 441.56 392.29 438.42 390.88 435.05 C 387.61 428.01 382.51 422.11 378.44 415.57 C 373.11 407.51 369.29 398.42 362.77 391.19 C 360.76 388.81 357.24 388.88 354.49 389.63 M 620.56 410.63 C 620.48 412.34 620.37 414.06 620.26 415.78 C 621.64 416.86 623.11 418.11 625.02 417.67 C 628.09 416.34 628.88 411.28 626.05 409.43 C 624.11 409.20 622.33 409.99 620.56 410.63 M 677.34 414.25 C 669.27 415.85 662.78 422.47 660.10 430.09 C 657.87 434.42 658.58 439.37 658.52 444.05 C 658.40 448.73 660.70 453.01 663.06 456.90 C 666.69 462.93 673.35 466.42 679.94 468.25 C 684.35 468.74 688.85 468.83 693.26 468.35 C 699.07 466.46 704.90 463.65 708.83 458.82 C 713.68 453.82 716.02 446.83 716.48 440.00 C 716.07 431.79 711.79 423.73 705.15 418.85 C 697.03 413.49 686.73 412.23 677.34 414.25 M 442.74 423.02 C 438.11 424.84 433.11 424.52 428.26 424.26 C 429.08 427.12 429.95 429.99 430.29 432.97 C 430.50 438.99 427.03 444.23 426.03 450.03 C 431.27 451.63 436.92 451.77 441.94 454.11 C 445.35 455.67 447.72 458.69 450.17 461.43 C 451.12 460.43 452.03 459.37 452.46 458.04 C 453.93 454.84 455.55 451.60 458.04 449.05 C 461.62 445.68 466.07 443.46 470.40 441.22 C 471.52 440.80 471.32 439.35 471.76 438.45 C 468.54 436.95 465.16 435.87 461.82 434.72 C 459.44 433.39 457.99 430.91 456.16 428.97 C 455.77 425.25 455.11 421.55 453.75 418.06 C 449.62 418.62 446.75 422.08 442.74 423.02 M 614.34 451.11 C 602.19 456.09 591.14 463.39 579.56 469.54 C 575.58 472.84 571.67 476.50 568.93 480.93 C 565.91 489.54 570.81 499.33 578.56 503.58 C 585.10 507.68 594.36 506.18 599.62 500.66 C 605.04 495.75 607.15 488.44 612.19 483.22 C 615.67 476.65 619.77 470.39 622.98 463.68 C 624.71 460.40 622.69 456.94 620.78 454.29 C 619.27 452.32 617.10 449.51 614.34 451.11 M 490.71 473.67 C 487.05 475.33 482.96 475.82 479.43 477.79 C 480.45 483.91 483.66 489.97 482.27 496.28 C 479.99 501.16 474.39 502.66 470.54 505.95 C 474.87 510.80 481.98 511.82 486.10 516.87 C 489.13 520.53 488.40 525.54 488.89 529.94 C 494.11 530.42 497.54 526.18 500.84 522.84 C 502.06 521.75 503.17 520.03 505.05 520.37 C 510.46 520.46 515.42 522.98 520.41 524.81 C 521.68 519.15 519.37 513.23 520.51 507.48 C 523.27 504.25 526.68 501.66 529.90 498.91 C 532.57 496.56 536.20 495.20 537.99 491.96 C 535.51 490.60 532.90 489.45 530.11 488.95 C 524.09 487.80 518.11 486.39 512.01 485.73 C 510.05 485.39 507.58 485.57 506.32 483.72 C 504.21 480.51 503.60 476.59 501.84 473.21 C 501.15 472.05 500.61 470.42 499.06 470.25 C 496.15 471.05 493.51 472.56 490.71 473.67 M 650.42 508.33 C 647.43 510.41 645.55 514.26 645.83 517.88 C 647.47 521.38 651.14 523.79 654.90 524.37 C 658.83 521.97 663.43 517.32 660.65 512.40 C 659.33 508.24 654.21 505.96 650.42 508.33 Z" />
<path fill="#01c3c5" opacity="1.00" d=" M 658.13 295.51 C 667.38 291.62 677.67 289.20 687.66 291.35 C 692.03 292.47 696.68 296.02 696.53 300.97 C 697.19 307.71 694.68 314.18 691.95 320.20 C 688.68 314.13 682.58 310.72 677.18 306.84 C 673.31 304.13 668.38 304.44 664.10 302.89 C 661.10 301.48 659.52 298.35 658.13 295.51 Z" />
<path fill="#01c3c5" opacity="1.00" d=" M 646.92 302.68 C 647.94 301.38 648.99 300.10 650.04 298.82 C 651.11 299.85 652.17 300.88 653.23 301.94 C 651.14 302.28 649.03 302.52 646.92 302.68 Z" />
<path fill="#01c3c5" opacity="1.00" d=" M 644.15 311.16 C 648.17 310.09 652.40 310.61 656.52 310.64 C 660.08 314.89 663.83 319.35 665.05 324.91 C 661.41 325.41 657.67 325.10 654.10 326.02 C 647.70 328.12 642.14 332.02 636.14 334.98 C 636.00 329.01 637.93 323.26 639.66 317.63 C 640.60 315.23 641.36 312.00 644.15 311.16 Z" />
<path fill="#01c3c5" opacity="1.00" d=" M 667.06 313.11 C 674.94 313.47 680.41 320.17 685.73 325.22 C 682.69 331.30 681.48 338.99 675.50 343.03 C 675.68 339.30 676.19 335.48 675.21 331.81 C 673.38 325.22 669.92 319.28 667.06 313.11 Z" />
<path fill="#01c3c5" opacity="1.00" d=" M 622.51 320.47 C 624.77 316.95 628.60 314.28 632.89 314.24 C 632.11 317.95 629.68 321.16 629.50 325.01 C 629.33 328.61 629.14 332.21 628.69 335.79 C 626.45 330.76 621.16 326.52 622.51 320.47 Z" />
<path fill="#01c3c5" opacity="1.00" d=" M 640.37 342.60 C 648.64 337.78 657.40 333.49 667.04 332.32 C 667.38 340.02 667.97 349.17 662.05 355.07 C 660.52 356.55 658.56 354.61 657.16 353.86 C 651.71 349.87 645.52 346.99 640.37 342.60 Z" />
<path fill="#01c3c5" opacity="1.00" d=" M 684.00 344.01 C 687.18 340.87 689.41 336.89 692.80 333.93 C 698.07 340.86 701.93 349.20 702.21 358.02 C 702.46 362.74 698.99 367.30 694.35 368.27 C 689.42 369.09 684.08 368.92 679.62 366.43 C 676.17 364.57 672.50 363.01 669.45 360.52 C 668.60 358.06 671.60 356.58 673.05 355.07 C 677.42 352.13 680.25 347.62 684.00 344.01 Z" />
<path fill="#01c3c5" opacity="1.00" d=" M 547.46 353.47 C 550.70 350.70 552.58 346.77 555.58 343.78 C 555.99 354.36 554.83 366.45 547.12 374.44 C 544.14 371.08 540.56 368.07 538.58 363.95 C 540.13 359.50 544.27 356.71 547.46 353.47 Z" />
<path fill="#01c3c5" opacity="1.00" d=" M 445.69 345.70 C 450.92 349.25 454.85 354.34 460.03 357.98 C 465.74 362.02 471.21 366.52 477.47 369.71 C 479.56 371.06 481.88 369.94 483.98 369.23 C 485.46 372.54 482.04 374.97 480.27 377.35 C 479.09 379.16 476.98 377.90 475.40 377.54 C 468.92 375.35 463.20 371.37 457.98 367.03 C 452.27 362.41 448.91 355.69 445.54 349.33 C 445.56 348.12 445.62 346.90 445.69 345.70 Z" />
<path fill="#01c3c5" opacity="1.00" d=" M 634.48 346.90 C 638.18 348.52 640.71 351.79 643.95 354.09 C 647.88 357.15 652.58 358.93 656.96 361.23 C 652.92 365.55 648.83 370.50 642.98 372.31 C 640.37 372.17 638.46 369.84 637.01 367.88 C 633.53 361.52 633.10 353.91 634.48 346.90 Z" />
<path fill="#01c3c5" opacity="1.00" d=" M 798.76 365.60 C 800.08 365.46 801.40 365.33 802.73 365.21 C 803.00 373.24 800.50 381.02 798.85 388.80 C 795.71 399.13 794.31 409.86 791.42 420.25 C 790.27 425.38 788.48 430.39 788.14 435.67 C 789.87 435.58 792.03 436.95 793.51 435.72 C 795.09 427.46 796.85 419.23 799.10 411.12 C 803.10 396.49 806.02 381.57 810.77 367.16 C 814.09 366.69 815.54 370.24 815.82 372.99 C 815.94 377.77 814.06 382.27 812.79 386.79 C 810.55 393.67 809.17 400.78 806.95 407.66 C 804.41 417.92 802.19 428.26 799.09 438.38 C 801.09 438.74 803.10 439.16 805.10 439.60 C 806.27 430.64 808.55 421.90 810.43 413.08 C 819.92 423.15 826.40 436.97 825.22 451.04 C 824.07 458.45 821.96 466.10 816.85 471.83 C 807.68 482.58 792.56 487.80 778.70 485.16 C 767.33 482.34 758.25 473.90 752.19 464.16 C 761.28 466.89 770.08 471.55 779.72 471.75 C 779.50 470.12 779.83 468.35 779.10 466.84 C 776.75 464.77 773.59 464.11 770.66 463.31 C 764.95 461.77 759.12 460.77 753.33 459.62 C 751.46 459.17 749.04 458.63 748.71 456.37 C 747.73 449.23 748.15 441.70 750.95 434.99 C 753.51 428.73 756.68 422.44 761.96 418.03 C 767.15 413.54 772.86 408.76 779.94 407.94 C 778.38 416.89 775.40 425.62 771.14 433.65 C 774.64 433.78 778.15 433.82 781.67 433.75 C 783.75 417.51 790.09 402.23 792.54 386.06 C 794.01 379.08 796.49 372.35 798.76 365.60 Z" />
<path fill="#01c3c5" opacity="1.00" d=" M 344.42 416.49 C 346.62 416.12 349.04 415.91 351.15 416.83 C 351.80 419.61 352.10 422.67 351.24 425.43 C 349.29 428.78 345.05 429.05 341.64 428.39 C 338.01 424.67 339.36 418.09 344.42 416.49 Z" />
<path fill="#01c3c5" opacity="1.00" d=" M 320.37 437.60 C 317.81 433.42 322.61 429.97 326.21 429.05 C 328.16 427.85 329.94 429.63 331.71 430.32 C 331.62 432.80 331.86 435.90 329.26 437.26 C 326.64 438.58 322.88 439.65 320.37 437.60 Z" />
<path fill="#01c3c5" opacity="1.00" d=" M 361.37 431.53 C 364.28 431.14 367.69 430.76 370.08 432.85 C 370.59 436.43 371.16 440.64 368.70 443.67 C 366.54 446.71 361.34 448.73 358.56 445.37 C 355.09 441.46 355.64 432.99 361.37 431.53 Z" />
<path fill="#01c3c5" opacity="1.00" d=" M 304.26 438.17 C 306.26 437.89 308.65 436.95 310.29 438.66 C 313.77 441.11 310.77 448.26 306.43 446.63 C 303.72 444.65 304.31 441.07 304.26 438.17 Z" />
<path fill="#01c3c5" opacity="1.00" d=" M 338.45 439.58 C 342.22 438.36 346.21 440.65 347.33 444.36 C 347.65 446.38 347.73 448.49 347.33 450.52 C 346.15 453.68 342.18 452.64 339.59 452.48 C 333.47 451.56 332.96 441.54 338.45 439.58 Z" />
<path fill="#01c3c5" opacity="1.00" d=" M 598.97 466.00 C 605.04 463.93 610.08 459.77 616.02 457.43 C 617.16 458.83 618.14 460.63 617.37 462.47 C 615.69 466.75 612.84 470.43 610.28 474.21 C 608.64 476.43 607.11 479.01 604.39 480.03 C 602.41 477.27 600.71 474.17 597.89 472.18 C 596.17 470.94 594.51 469.64 592.96 468.21 C 594.93 467.39 596.94 466.67 598.97 466.00 Z" />
<path fill="#01c3c5" opacity="1.00" d=" M 322.41 460.33 C 326.50 459.58 327.76 464.94 327.22 468.03 C 326.63 470.71 325.54 475.08 322.00 474.72 C 319.13 474.88 317.01 471.70 317.20 469.03 C 316.81 465.32 319.54 462.26 322.41 460.33 Z" />
<path fill="#01c3c5" opacity="1.00" d=" M 585.44 473.55 C 589.31 473.05 593.57 473.75 596.68 476.25 C 600.40 479.15 602.05 484.34 601.04 488.89 C 598.51 496.68 588.68 500.00 581.31 497.76 C 574.66 495.86 572.64 487.10 575.36 481.38 C 577.27 477.42 581.06 474.31 585.44 473.55 Z" />
<path fill="#01c3c5" opacity="1.00" d=" M 610.00 645.17 C 622.45 646.25 634.96 642.43 645.12 635.27 C 655.15 642.30 663.50 651.65 669.82 662.12 C 678.06 675.66 686.22 689.26 693.75 703.22 C 701.18 716.53 706.86 730.71 713.61 744.37 C 719.35 756.99 726.07 769.31 729.70 782.76 C 724.54 782.58 719.41 782.03 714.28 781.47 C 707.97 780.67 701.56 780.47 695.39 778.79 C 695.33 774.96 695.42 771.11 694.72 767.34 C 693.59 760.14 688.20 753.76 681.21 751.62 C 671.76 748.47 661.39 751.19 653.02 756.03 C 645.53 760.56 639.94 768.70 630.83 770.15 C 628.90 766.26 627.55 762.13 625.76 758.18 C 623.69 753.53 619.46 750.26 615.10 747.89 C 613.97 747.18 612.63 747.53 611.43 747.73 C 602.76 751.30 593.82 754.13 585.02 757.35 C 579.66 759.93 574.02 762.20 568.00 762.46 C 559.26 762.87 550.99 765.89 542.53 767.76 C 539.87 768.25 537.17 768.47 534.49 768.67 C 535.24 763.61 540.01 760.74 543.00 757.01 C 548.27 750.54 553.90 744.29 558.16 737.08 C 563.42 728.39 569.31 720.07 574.13 711.12 C 577.81 703.14 581.20 694.82 582.00 685.99 C 583.17 676.89 580.08 667.94 576.22 659.84 C 574.02 655.09 570.39 651.24 567.31 647.08 C 569.98 644.22 572.66 641.12 576.30 639.49 C 579.84 639.63 582.83 642.08 586.27 642.82 C 594.05 644.60 602.10 644.32 610.00 645.17 Z" />
</g>
<g id="#f27101ff">
<path fill="#f27101" opacity="1.00" d=" M 485.33 227.88 C 486.90 227.54 488.49 227.10 490.13 227.29 C 492.39 228.43 491.60 231.04 491.45 233.05 C 490.05 235.33 487.46 234.24 485.49 233.57 C 485.45 231.67 485.38 229.77 485.33 227.88 Z" />
<path fill="#f27101" opacity="1.00" d=" M 602.20 234.97 C 606.24 234.22 610.17 232.95 614.24 232.34 C 616.69 233.33 615.36 235.94 615.10 237.83 C 614.04 241.90 614.65 246.13 614.76 250.27 C 618.15 252.68 621.33 255.36 624.61 257.91 C 624.58 258.71 624.51 260.33 624.47 261.13 C 617.58 264.57 609.32 265.17 603.31 270.33 C 601.05 272.16 600.77 275.26 600.09 277.89 C 598.41 275.04 597.09 271.53 593.88 270.10 C 590.58 268.53 587.03 267.45 584.08 265.23 C 587.29 260.21 586.82 254.10 586.25 248.44 C 584.96 244.52 583.10 240.69 583.25 236.45 C 586.56 236.22 589.73 237.36 593.01 237.47 C 596.51 236.96 600.01 236.14 603.58 236.55 C 603.11 236.03 602.65 235.50 602.20 234.97 Z" />
<path fill="#f27101" opacity="1.00" d=" M 755.44 339.41 C 757.55 337.28 763.05 338.26 762.60 342.01 C 763.85 346.61 756.83 348.31 754.64 344.96 C 754.45 343.14 753.88 340.81 755.44 339.41 Z" />
<path fill="#f27101" opacity="1.00" d=" M 392.10 368.23 C 393.61 367.19 394.92 365.25 397.02 365.70 C 399.22 365.80 400.67 367.57 402.16 368.95 C 401.23 370.47 400.34 372.02 399.48 373.58 C 397.52 373.53 395.57 373.47 393.62 373.43 C 393.13 371.69 392.62 369.95 392.10 368.23 Z" />
<path fill="#f27101" opacity="1.00" d=" M 620.56 410.63 C 622.33 409.99 624.11 409.20 626.05 409.43 C 628.88 411.28 628.09 416.34 625.02 417.67 C 623.11 418.11 621.64 416.86 620.26 415.78 C 620.37 414.06 620.48 412.34 620.56 410.63 Z" />
<path fill="#f27101" opacity="1.00" d=" M 441.16 425.05 C 445.21 424.24 448.64 421.82 452.04 419.62 C 452.88 422.93 453.65 426.45 456.16 428.97 C 457.99 430.91 459.44 433.39 461.82 434.72 C 465.16 435.87 468.54 436.95 471.76 438.45 C 471.32 439.35 471.52 440.80 470.40 441.22 C 466.07 443.46 461.62 445.68 458.04 449.05 C 455.55 451.60 453.93 454.84 452.46 458.04 C 447.80 457.11 444.80 452.90 440.25 451.76 C 436.25 450.58 432.18 449.66 428.19 448.45 C 428.86 445.49 429.81 442.62 430.75 439.75 C 432.22 435.36 431.48 430.68 431.21 426.17 C 434.52 425.78 437.88 425.68 441.16 425.05 Z" />
<path fill="#f27101" opacity="1.00" d=" M 485.24 477.07 C 490.22 475.73 494.88 473.48 499.85 472.10 C 502.08 476.79 503.21 481.91 505.28 486.67 C 511.57 486.35 517.75 487.59 523.77 489.28 C 527.81 490.49 532.63 489.78 535.88 492.93 C 529.80 497.04 523.76 501.33 518.60 506.57 C 517.60 511.60 520.34 516.84 519.18 522.03 C 514.18 521.37 509.62 518.42 504.54 518.52 C 500.09 519.93 497.88 524.61 494.17 527.17 C 493.24 527.82 491.35 529.00 491.03 527.09 C 489.76 523.33 489.95 518.95 487.32 515.74 C 483.71 511.00 477.22 510.17 473.13 505.95 C 476.29 503.37 480.17 501.88 483.29 499.28 C 486.18 492.63 483.23 485.44 481.23 478.99 C 482.07 477.69 483.91 477.66 485.24 477.07 Z" />
<path fill="#f27101" opacity="1.00" d=" M 647.44 515.31 C 648.55 511.07 652.87 508.73 657.09 509.52 C 658.21 511.88 659.75 514.21 659.83 516.91 C 658.96 519.44 656.62 521.01 654.80 522.83 C 651.89 521.06 646.74 519.62 647.44 515.31 Z" />
<path fill="#f27101" opacity="1.00" d=" M 585.02 757.35 C 593.82 754.13 602.76 751.30 611.43 747.73 C 612.32 748.92 613.22 750.11 614.13 751.32 C 606.39 757.13 598.39 762.66 589.93 767.40 C 595.61 768.68 601.32 769.78 606.99 771.09 C 613.57 772.44 620.21 774.49 627.00 773.57 C 628.93 773.55 630.85 773.81 632.73 774.23 C 642.28 776.43 651.81 778.76 661.43 780.61 C 672.94 783.37 684.30 787.07 694.77 792.65 C 690.97 802.97 685.86 812.77 680.27 822.23 C 674.23 832.68 667.12 843.44 655.86 848.80 C 642.23 848.94 628.61 848.09 614.99 848.18 C 598.00 847.45 580.99 847.83 564.00 847.58 C 525.33 847.49 486.66 847.40 448.00 847.72 C 428.68 848.60 409.32 848.22 389.99 848.99 C 381.00 849.56 371.98 849.22 363.00 849.82 C 353.75 850.61 344.44 850.04 335.19 850.74 C 333.00 850.80 330.82 850.79 328.64 850.80 C 328.39 846.91 329.00 843.06 329.99 839.32 C 333.23 838.45 336.41 837.37 339.70 836.67 C 346.98 834.98 354.49 835.83 361.89 835.67 C 358.67 828.22 354.87 821.02 352.09 813.38 C 363.73 815.85 375.70 817.65 387.61 816.45 C 394.19 815.58 401.06 813.68 405.97 808.97 C 409.53 805.50 411.08 800.58 412.03 795.84 C 420.45 794.72 428.57 792.15 436.67 789.72 C 467.65 779.93 500.19 777.26 531.98 771.23 C 535.63 770.53 539.07 769.09 542.53 767.76 C 550.99 765.89 559.26 762.87 568.00 762.46 C 574.02 762.20 579.66 759.93 585.02 757.35 Z" />
</g>
<g id="#780035ff">
<path fill="#780035" opacity="1.00" d=" M 485.72 259.70 C 491.06 257.97 494.67 263.10 496.24 267.47 C 498.51 265.42 501.22 263.62 504.40 263.59 C 510.71 263.40 517.24 262.74 523.34 264.85 C 528.57 266.58 533.82 268.56 538.43 271.66 C 542.20 274.44 545.48 277.87 548.39 281.55 C 555.94 291.86 561.10 303.84 563.54 316.37 C 563.91 320.04 563.58 323.73 563.41 327.41 C 565.51 328.00 567.60 328.65 569.66 329.41 C 569.63 331.44 569.60 333.48 569.57 335.52 C 566.87 335.65 564.16 335.68 561.47 335.71 C 561.35 339.76 562.90 343.67 562.49 347.73 C 561.81 353.64 560.55 359.58 557.82 364.92 C 555.64 369.97 552.63 374.71 551.27 380.08 C 559.66 382.18 568.56 383.95 575.46 389.53 C 578.22 392.31 580.14 395.81 581.75 399.35 C 586.71 414.40 574.45 433.42 557.99 432.75 C 544.48 432.94 533.52 420.08 533.41 407.03 C 533.12 401.39 534.71 395.87 536.80 390.70 C 537.78 388.37 540.25 387.31 542.19 385.93 C 541.12 384.11 540.05 382.30 539.10 380.42 C 540.19 379.31 541.26 378.20 542.35 377.09 C 537.94 373.78 533.88 370.06 530.38 365.80 C 527.33 370.47 521.82 371.92 517.46 374.93 C 514.38 376.71 510.62 376.44 507.25 377.30 C 499.22 378.53 493.35 384.66 486.58 388.53 C 482.94 389.11 479.74 386.49 476.49 385.22 C 476.21 391.53 475.11 398.68 469.55 402.60 C 460.84 410.74 445.97 406.36 440.37 396.66 C 437.24 391.32 436.58 384.76 437.85 378.77 C 438.40 375.11 441.82 373.16 444.41 371.00 C 440.29 361.23 440.01 350.02 433.99 341.06 C 432.93 339.67 433.31 337.87 433.17 336.27 C 435.66 335.45 438.20 334.80 440.79 334.31 C 440.77 330.32 440.10 326.33 440.54 322.36 C 441.34 320.49 442.49 318.79 443.39 316.96 C 444.12 315.45 444.82 313.93 445.56 312.42 C 444.15 312.42 442.76 312.41 441.37 312.39 C 439.68 312.36 438.01 312.35 436.33 312.34 C 433.97 320.70 426.21 326.07 418.16 328.22 C 411.17 329.80 403.87 326.97 398.62 322.36 C 389.41 313.92 387.46 298.85 394.57 288.51 C 399.47 282.02 407.63 277.41 415.92 278.49 C 424.23 279.54 432.77 283.31 437.41 290.58 C 440.69 294.45 439.80 299.90 438.75 304.44 C 439.13 304.52 439.90 304.69 440.28 304.77 C 443.25 305.44 446.27 305.84 449.31 305.97 C 450.18 302.38 452.04 299.18 454.64 296.58 C 459.66 290.20 466.71 286.05 472.85 280.89 C 478.10 277.59 482.09 272.52 487.97 270.22 C 485.79 267.12 485.54 263.35 485.72 259.70 M 499.20 270.47 C 502.19 278.49 507.24 285.49 510.82 293.24 C 513.25 297.96 514.82 303.19 518.34 307.28 C 522.62 304.34 524.62 299.41 527.16 295.09 C 530.09 289.81 533.66 284.67 534.78 278.61 C 524.64 271.46 511.53 266.44 499.20 270.47 M 483.70 277.72 C 474.87 282.92 467.77 290.41 460.31 297.31 C 457.36 300.24 455.33 303.95 453.65 307.72 C 460.93 308.31 468.26 307.97 475.54 308.65 C 484.42 309.26 493.16 310.99 501.97 312.15 C 505.74 312.70 509.57 312.02 512.88 310.12 C 509.92 301.90 505.16 294.49 501.43 286.62 C 498.45 281.30 495.52 275.79 491.20 271.41 C 489.08 273.93 486.58 276.10 483.70 277.72 M 537.53 282.12 C 536.60 286.75 534.43 290.98 531.97 294.97 C 528.89 299.91 526.72 305.42 522.93 309.91 C 521.45 311.52 521.77 313.80 521.81 315.81 C 533.76 317.95 545.22 322.08 557.01 324.91 C 557.02 320.70 556.64 316.48 555.52 312.41 C 552.65 300.91 547.04 289.55 537.53 282.12 M 415.42 283.47 C 410.13 284.04 405.03 286.51 401.33 290.33 C 397.74 294.01 397.78 299.75 398.71 304.47 C 401.84 311.10 407.43 317.64 415.09 318.67 C 421.04 319.57 426.33 316.11 431.11 313.08 C 434.59 311.01 434.55 306.57 434.73 303.02 C 435.04 297.85 434.63 292.07 430.85 288.13 C 426.75 284.34 420.89 282.84 415.42 283.47 M 451.32 313.28 C 445.86 319.00 448.23 327.61 448.12 334.70 C 455.63 331.89 462.97 328.52 470.25 325.15 C 478.74 320.23 488.24 316.60 498.17 316.59 C 491.59 315.48 484.98 314.56 478.38 313.55 C 471.96 312.50 465.43 313.09 458.96 312.68 C 456.41 312.60 453.75 312.37 451.32 313.28 M 489.90 322.02 C 476.10 327.40 462.14 332.51 448.96 339.30 C 452.48 346.09 460.31 348.78 466.50 352.56 C 472.34 356.51 479.15 358.71 486.00 360.16 C 487.53 360.70 488.30 358.94 489.15 358.04 C 498.87 345.16 508.19 331.83 515.11 317.20 C 506.41 316.21 498.09 319.63 489.90 322.02 M 520.90 320.30 C 523.09 329.86 526.86 339.04 528.21 348.80 C 528.87 353.26 530.67 357.46 533.14 361.21 C 537.85 357.25 542.49 353.19 546.51 348.52 C 552.44 344.26 554.63 336.94 557.13 330.42 C 550.10 327.09 542.33 326.04 534.94 323.83 C 530.31 322.42 525.58 321.45 520.90 320.30 M 507.41 338.38 C 503.48 345.99 498.26 352.83 494.09 360.29 C 504.06 361.52 513.82 357.33 522.13 352.19 C 522.03 354.37 522.86 357.24 520.52 358.55 C 511.39 363.65 500.74 365.49 490.37 365.23 C 489.93 367.79 489.17 370.33 489.19 372.95 C 487.38 375.14 485.58 377.50 485.14 380.39 C 486.42 380.37 487.71 380.36 489.00 380.31 C 491.44 380.34 491.90 377.63 493.38 376.26 C 498.70 374.54 504.43 374.45 509.71 372.52 C 516.17 370.06 522.71 367.76 528.90 364.64 C 527.02 359.01 524.06 353.74 522.99 347.84 C 521.35 339.41 519.08 331.13 516.44 322.96 C 512.92 327.78 510.53 333.30 507.41 338.38 M 442.56 341.74 C 442.83 344.50 443.82 347.13 445.54 349.33 C 448.91 355.69 452.27 362.41 457.98 367.03 C 463.20 371.37 468.92 375.35 475.40 377.54 C 476.98 377.90 479.09 379.16 480.27 377.35 C 482.04 374.97 485.46 372.54 483.98 369.23 C 484.77 366.76 485.84 364.40 486.66 361.94 C 483.74 362.33 480.68 363.45 477.81 362.25 C 467.96 358.91 459.47 352.75 450.86 347.10 C 448.19 345.17 445.79 342.73 442.56 341.74 M 547.46 353.47 C 544.27 356.71 540.13 359.50 538.58 363.95 C 540.56 368.07 544.14 371.08 547.12 374.44 C 554.83 366.45 555.99 354.36 555.58 343.78 C 552.58 346.77 550.70 350.70 547.46 353.47 M 446.39 373.45 C 445.90 378.85 446.53 385.23 451.09 388.84 C 453.67 390.73 456.50 393.00 459.90 392.76 C 462.94 392.63 466.14 391.56 468.22 389.25 C 469.18 386.66 469.30 382.98 466.85 381.15 C 463.92 378.70 460.72 376.60 457.50 374.58 C 454.19 372.46 450.08 373.37 446.39 373.45 M 555.35 387.13 C 549.63 389.00 542.59 391.08 540.32 397.35 C 538.26 402.02 540.87 406.86 542.77 411.10 C 544.43 415.23 548.21 418.16 552.39 419.45 C 558.25 420.60 564.73 419.23 569.29 415.28 C 571.60 412.36 572.44 408.58 573.33 405.04 C 574.24 400.09 573.92 393.76 569.19 390.80 C 565.15 388.31 560.17 386.04 555.35 387.13 Z" />
<path fill="#780035" opacity="1.00" d=" M 594.77 293.60 C 596.82 292.93 597.23 297.70 595.16 297.49 C 595.04 296.19 594.90 294.89 594.77 293.60 Z" />
<path fill="#780035" opacity="1.00" d=" M 349.49 514.67 C 359.04 511.68 368.86 508.76 378.99 509.23 C 397.41 508.61 416.53 515.11 429.25 528.76 C 437.38 537.92 442.45 549.87 443.57 562.04 C 442.93 564.28 442.89 567.41 440.38 568.46 C 434.57 571.15 428.13 572.05 422.10 574.16 C 413.48 577.13 404.60 579.31 395.95 582.18 C 384.86 586.47 373.79 591.16 364.10 598.16 C 359.31 601.71 354.12 604.71 349.62 608.64 C 357.34 608.05 365.12 607.43 372.85 608.29 C 376.42 608.75 379.35 611.05 382.31 612.92 C 377.33 614.10 372.00 613.95 367.33 616.27 C 361.84 618.99 355.79 621.62 352.51 627.12 C 363.98 623.43 376.21 623.68 388.09 624.37 C 386.31 629.36 382.94 633.54 379.28 637.28 C 374.37 642.25 370.91 648.41 366.20 653.55 C 378.23 659.91 390.69 665.52 402.20 672.82 C 406.65 675.47 411.24 677.87 415.75 680.42 C 414.73 696.20 412.07 711.84 411.58 727.66 C 398.24 726.38 384.07 730.87 375.06 741.04 C 365.46 752.94 366.24 771.48 375.91 783.09 C 384.84 793.19 399.20 795.63 412.03 795.84 C 411.08 800.58 409.53 805.50 405.97 808.97 C 401.06 813.68 394.19 815.58 387.61 816.45 C 375.70 817.65 363.73 815.85 352.09 813.38 C 354.87 821.02 358.67 828.22 361.89 835.67 C 354.49 835.83 346.98 834.98 339.70 836.67 C 336.41 837.37 333.23 838.45 329.99 839.32 C 329.55 839.29 328.65 839.24 328.20 839.21 C 305.72 831.84 284.75 819.76 267.68 803.32 C 243.54 781.52 225.87 751.57 221.97 718.99 C 220.54 702.74 219.59 686.14 223.37 670.14 C 221.98 663.29 219.14 656.76 218.27 649.77 C 216.83 638.58 215.97 627.21 217.21 615.95 C 217.84 608.96 217.91 601.77 220.46 595.13 C 225.05 595.22 227.87 599.24 230.86 602.15 C 236.30 608.12 242.97 612.80 248.44 618.74 C 248.70 616.19 249.07 613.66 249.32 611.12 C 250.28 598.05 255.93 585.43 264.90 575.90 C 275.55 564.52 290.90 557.53 306.53 557.43 C 308.11 554.00 309.59 550.52 311.28 547.14 C 319.09 531.79 333.24 520.14 349.49 514.67 Z" />
<path fill="#780035" opacity="1.00" d=" M 431.57 603.55 C 435.22 597.08 442.34 592.42 449.95 593.07 C 452.39 592.93 453.55 595.40 454.84 597.03 C 452.34 600.61 447.95 601.92 444.96 604.96 C 440.13 609.35 437.57 615.56 433.32 620.42 C 432.25 621.78 430.42 621.38 428.94 621.61 C 426.39 615.64 428.35 608.84 431.57 603.55 Z" />
<path fill="#780035" opacity="1.00" d=" M 611.43 747.73 C 612.63 747.53 613.97 747.18 615.10 747.89 C 619.46 750.26 623.69 753.53 625.76 758.18 C 627.55 762.13 628.90 766.26 630.83 770.15 C 629.31 770.28 627.80 770.37 626.30 770.47 C 626.52 771.49 626.76 772.53 627.00 773.57 C 620.21 774.49 613.57 772.44 606.99 771.09 C 601.32 769.78 595.61 768.68 589.93 767.40 C 598.39 762.66 606.39 757.13 614.13 751.32 C 613.22 750.11 612.32 748.92 611.43 747.73 Z" />
</g>
<g id="#fb01a1ff">
<path fill="#fb01a1" opacity="1.00" d=" M 415.42 283.47 C 420.89 282.84 426.75 284.34 430.85 288.13 C 434.63 292.07 435.04 297.85 434.73 303.02 C 434.55 306.57 434.59 311.01 431.11 313.08 C 426.33 316.11 421.04 319.57 415.09 318.67 C 407.43 317.64 401.84 311.10 398.71 304.47 C 397.78 299.75 397.74 294.01 401.33 290.33 C 405.03 286.51 410.13 284.04 415.42 283.47 Z" />
<path fill="#fb01a1" opacity="1.00" d=" M 446.39 373.45 C 450.08 373.37 454.19 372.46 457.50 374.58 C 460.72 376.60 463.92 378.70 466.85 381.15 C 469.30 382.98 469.18 386.66 468.22 389.25 C 466.14 391.56 462.94 392.63 459.90 392.76 C 456.50 393.00 453.67 390.73 451.09 388.84 C 446.53 385.23 445.90 378.85 446.39 373.45 Z" />
<path fill="#fb01a1" opacity="1.00" d=" M 555.35 387.13 C 560.17 386.04 565.15 388.31 569.19 390.80 C 573.92 393.76 574.24 400.09 573.33 405.04 C 572.44 408.58 571.60 412.36 569.29 415.28 C 564.73 419.23 558.25 420.60 552.39 419.45 C 548.21 418.16 544.43 415.23 542.77 411.10 C 540.87 406.86 538.26 402.02 540.32 397.35 C 542.59 391.08 549.63 389.00 555.35 387.13 Z" />
<path fill="#fb01a1" opacity="1.00" d=" M 677.34 414.25 C 686.73 412.23 697.03 413.49 705.15 418.85 C 711.79 423.73 716.07 431.79 716.48 440.00 C 716.02 446.83 713.68 453.82 708.83 458.82 C 704.90 463.65 699.07 466.46 693.26 468.35 C 688.85 468.83 684.35 468.74 679.94 468.25 C 673.35 466.42 666.69 462.93 663.06 456.90 C 660.70 453.01 658.40 448.73 658.52 444.05 C 658.58 439.37 657.87 434.42 660.10 430.09 C 662.78 422.47 669.27 415.85 677.34 414.25 Z" />
</g>
<g id="#fbcf9bff">
<path fill="#fbcf9b" opacity="1.00" d=" M 590.77 299.56 C 588.25 296.47 589.91 292.77 592.89 290.84 C 593.55 291.73 594.18 292.65 594.77 293.60 C 594.90 294.89 595.04 296.19 595.16 297.49 C 594.96 297.99 594.57 298.99 594.38 299.50 C 593.47 299.51 591.67 299.54 590.77 299.56 Z" />
<path fill="#fbcf9b" opacity="1.00" d=" M 391.23 367.38 C 393.06 361.75 403.38 363.96 402.65 369.92 C 402.85 372.28 400.99 373.91 399.70 375.63 C 397.63 375.55 395.57 375.51 393.52 375.49 C 392.32 373.03 389.74 370.20 391.23 367.38 M 392.10 368.23 C 392.62 369.95 393.13 371.69 393.62 373.43 C 395.57 373.47 397.52 373.53 399.48 373.58 C 400.34 372.02 401.23 370.47 402.16 368.95 C 400.67 367.57 399.22 365.80 397.02 365.70 C 394.92 365.25 393.61 367.19 392.10 368.23 Z" />
<path fill="#fbcf9b" opacity="1.00" d=" M 485.14 380.39 C 485.58 377.50 487.38 375.14 489.19 372.95 C 489.83 375.97 488.59 378.53 486.08 380.22 C 486.81 380.25 488.27 380.29 489.00 380.31 C 487.71 380.36 486.42 380.37 485.14 380.39 Z" />
<path fill="#fbcf9b" opacity="1.00" d=" M 442.74 423.02 C 446.75 422.08 449.62 418.62 453.75 418.06 C 455.11 421.55 455.77 425.25 456.16 428.97 C 453.65 426.45 452.88 422.93 452.04 419.62 C 448.64 421.82 445.21 424.24 441.16 425.05 C 437.88 425.68 434.52 425.78 431.21 426.17 C 431.48 430.68 432.22 435.36 430.75 439.75 C 429.81 442.62 428.86 445.49 428.19 448.45 C 432.18 449.66 436.25 450.58 440.25 451.76 C 444.80 452.90 447.80 457.11 452.46 458.04 C 452.03 459.37 451.12 460.43 450.17 461.43 C 447.72 458.69 445.35 455.67 441.94 454.11 C 436.92 451.77 431.27 451.63 426.03 450.03 C 427.03 444.23 430.50 438.99 430.29 432.97 C 429.95 429.99 429.08 427.12 428.26 424.26 C 433.11 424.52 438.11 424.84 442.74 423.02 Z" />
<path fill="#fbcf9b" opacity="1.00" d=" M 490.71 473.67 C 493.51 472.56 496.15 471.05 499.06 470.25 C 500.61 470.42 501.15 472.05 501.84 473.21 C 503.60 476.59 504.21 480.51 506.32 483.72 C 507.58 485.57 510.05 485.39 512.01 485.73 C 518.11 486.39 524.09 487.80 530.11 488.95 C 532.90 489.45 535.51 490.60 537.99 491.96 C 536.20 495.20 532.57 496.56 529.90 498.91 C 526.68 501.66 523.27 504.25 520.51 507.48 C 519.37 513.23 521.68 519.15 520.41 524.81 C 515.42 522.98 510.46 520.46 505.05 520.37 C 503.17 520.03 502.06 521.75 500.84 522.84 C 497.54 526.18 494.11 530.42 488.89 529.94 C 488.40 525.54 489.13 520.53 486.10 516.87 C 481.98 511.82 474.87 510.80 470.54 505.95 C 474.39 502.66 479.99 501.16 482.27 496.28 C 483.66 489.97 480.45 483.91 479.43 477.79 C 482.96 475.82 487.05 475.33 490.71 473.67 M 485.24 477.07 C 483.91 477.66 482.07 477.69 481.23 478.99 C 483.23 485.44 486.18 492.63 483.29 499.28 C 480.17 501.88 476.29 503.37 473.13 505.95 C 477.22 510.17 483.71 511.00 487.32 515.74 C 489.95 518.95 489.76 523.33 491.03 527.09 C 491.35 529.00 493.24 527.82 494.17 527.17 C 497.88 524.61 500.09 519.93 504.54 518.52 C 509.62 518.42 514.18 521.37 519.18 522.03 C 520.34 516.84 517.60 511.60 518.60 506.57 C 523.76 501.33 529.80 497.04 535.88 492.93 C 532.63 489.78 527.81 490.49 523.77 489.28 C 517.75 487.59 511.57 486.35 505.28 486.67 C 503.21 481.91 502.08 476.79 499.85 472.10 C 494.88 473.48 490.22 475.73 485.24 477.07 Z" />
<path fill="#fbcf9b" opacity="1.00" d=" M 650.42 508.33 C 654.21 505.96 659.33 508.24 660.65 512.40 C 663.43 517.32 658.83 521.97 654.90 524.37 C 651.14 523.79 647.47 521.38 645.83 517.88 C 645.55 514.26 647.43 510.41 650.42 508.33 M 647.44 515.31 C 646.74 519.62 651.89 521.06 654.80 522.83 C 656.62 521.01 658.96 519.44 659.83 516.91 C 659.75 514.21 658.21 511.88 657.09 509.52 C 652.87 508.73 648.55 511.07 647.44 515.31 Z" />
<path fill="#fbcf9b" opacity="1.00" d=" M 569.70 561.71 C 574.10 559.72 579.07 560.25 583.75 560.49 C 595.71 561.77 607.22 565.42 618.88 568.20 C 626.51 569.95 633.52 573.55 640.84 576.23 C 655.12 582.06 668.24 590.32 680.86 599.11 C 696.71 610.03 710.88 623.12 726.02 634.96 C 735.93 643.72 745.90 652.42 755.59 661.43 C 774.31 679.41 793.18 697.49 808.71 718.38 C 815.15 726.81 820.43 736.01 825.87 745.08 C 834.62 760.57 840.82 778.02 840.52 796.00 C 840.93 808.52 837.68 821.26 830.67 831.70 C 826.65 837.72 820.45 841.90 813.96 844.87 C 801.86 849.53 788.84 850.69 776.01 851.43 C 761.55 851.43 747.08 851.09 732.63 851.76 C 726.04 852.01 719.59 850.12 713.01 850.26 C 700.66 850.36 688.35 849.19 676.01 849.33 C 669.29 849.24 662.54 849.62 655.86 848.80 C 667.12 843.44 674.23 832.68 680.27 822.23 C 685.86 812.77 690.97 802.97 694.77 792.65 C 684.30 787.07 672.94 783.37 661.43 780.61 C 651.81 778.76 642.28 776.43 632.73 774.23 C 630.85 773.81 628.93 773.55 627.00 773.57 C 626.76 772.53 626.52 771.49 626.30 770.47 C 627.80 770.37 629.31 770.28 630.83 770.15 C 639.94 768.70 645.53 760.56 653.02 756.03 C 661.39 751.19 671.76 748.47 681.21 751.62 C 688.20 753.76 693.59 760.14 694.72 767.34 C 695.42 771.11 695.33 774.96 695.39 778.79 C 701.56 780.47 707.97 780.67 714.28 781.47 C 719.41 782.03 724.54 782.58 729.70 782.76 C 726.07 769.31 719.35 756.99 713.61 744.37 C 706.86 730.71 701.18 716.53 693.75 703.22 C 686.22 689.26 678.06 675.66 669.82 662.12 C 663.50 651.65 655.15 642.30 645.12 635.27 C 634.96 642.43 622.45 646.25 610.00 645.17 C 602.10 644.32 594.05 644.60 586.27 642.82 C 582.83 642.08 579.84 639.63 576.30 639.49 C 572.66 641.12 569.98 644.22 567.31 647.08 C 570.39 651.24 574.02 655.09 576.22 659.84 C 580.08 667.94 583.17 676.89 582.00 685.99 C 581.20 694.82 577.81 703.14 574.13 711.12 C 569.31 720.07 563.42 728.39 558.16 737.08 C 553.90 744.29 548.27 750.54 543.00 757.01 C 540.01 760.74 535.24 763.61 534.49 768.67 C 537.17 768.47 539.87 768.25 542.53 767.76 C 539.07 769.09 535.63 770.53 531.98 771.23 C 500.19 777.26 467.65 779.93 436.67 789.72 C 428.57 792.15 420.45 794.72 412.03 795.84 C 399.20 795.63 384.84 793.19 375.91 783.09 C 366.24 771.48 365.46 752.94 375.06 741.04 C 384.07 730.87 398.24 726.38 411.58 727.66 C 412.07 711.84 414.73 696.20 415.75 680.42 C 411.24 677.87 406.65 675.47 402.20 672.82 C 390.69 665.52 378.23 659.91 366.20 653.55 C 370.91 648.41 374.37 642.25 379.28 637.28 C 382.94 633.54 386.31 629.36 388.09 624.37 C 376.21 623.68 363.98 623.43 352.51 627.12 C 355.79 621.62 361.84 618.99 367.33 616.27 C 372.00 613.95 377.33 614.10 382.31 612.92 C 379.35 611.05 376.42 608.75 372.85 608.29 C 365.12 607.43 357.34 608.05 349.62 608.64 C 354.12 604.71 359.31 601.71 364.10 598.16 C 373.79 591.16 384.86 586.47 395.95 582.18 C 404.60 579.31 413.48 577.13 422.10 574.16 C 428.13 572.05 434.57 571.15 440.38 568.46 C 442.89 567.41 442.93 564.28 443.57 562.04 C 447.75 562.49 451.99 562.15 456.16 562.79 C 459.65 563.38 462.03 566.24 464.15 568.84 C 468.52 574.40 472.89 580.11 478.67 584.29 C 484.12 588.15 489.73 592.19 496.34 593.77 C 505.38 596.23 515.33 592.84 523.99 596.97 C 530.05 599.77 530.93 607.01 532.30 612.77 C 534.81 606.35 538.31 600.26 543.75 595.88 C 542.57 593.06 539.29 590.19 540.89 586.97 C 543.10 582.71 546.73 579.44 550.09 576.10 C 556.04 570.60 562.16 564.96 569.70 561.71 M 431.57 603.55 C 428.35 608.84 426.39 615.64 428.94 621.61 C 430.42 621.38 432.25 621.78 433.32 620.42 C 437.57 615.56 440.13 609.35 444.96 604.96 C 447.95 601.92 452.34 600.61 454.84 597.03 C 453.55 595.40 452.39 592.93 449.95 593.07 C 442.34 592.42 435.22 597.08 431.57 603.55 Z" />
<path fill="#fbcf9b" opacity="1.00" d=" M 328.20 839.21 C 328.65 839.24 329.55 839.29 329.99 839.32 C 329.00 843.06 328.39 846.91 328.64 850.80 C 330.82 850.79 333.00 850.80 335.19 850.74 C 333.07 853.15 329.82 853.00 327.14 851.70 C 327.37 847.52 327.48 843.33 328.20 839.21 Z" />
</g>
</svg>
